<?xml version="1.0" encoding="UTF-8"?>
<!DOCTYPE svg PUBLIC "-//W3C//DTD SVG 1.1//EN" "http://www.w3.org/Graphics/SVG/1.1/DTD/svg11.dtd">
<!-- Creator: CorelDRAW -->
<svg xmlns="http://www.w3.org/2000/svg" xml:space="preserve" width="87.9663mm" height="110.001mm" style="shape-rendering:geometricPrecision; text-rendering:geometricPrecision; image-rendering:optimizeQuality; fill-rule:evenodd; clip-rule:evenodd"
viewBox="0 0 89.5471 111.978"
 xmlns:xlink="http://www.w3.org/1999/xlink">
 <g id="Слой_x0020_1">
  <metadata id="CorelCorpID_0Corel-Layer"/>
  <path class="follow-man-path" d="M50.7985 43.1497c-13.8513,-5.03305 -23.1349,-9.30924 -36.3464,5.14554l3.67172 2.54717c10.0849,-11.062 17.8615,-5.76294 29.0894,-1.92356 -5.13159,4.97839 -19.9477,26.5462 -44.2038,11.8953l-3.00932 3.29273c21.7871,13.6533 38.9247,0.438135 49.9518,-11.5697 -2.51205,28.5717 1.0591,29.7869 -13.4946,55.6053l5.49511 3.83561c14.8559,-26.0394 12.0173,-28.2924 14.7263,-61.0355 14.2288,2.63105 22.3507,1.08943 32.8685,-10.4182l-3.65289 -2.54961c-9.5167,10.4124 -17.4139,8.34481 -28.6552,6.71209 5.26484,-6.33595 38.2078,-33.9129 17.7835,-43.1824 -20.4243,-9.26954 -22.3715,26.2239 -24.2241,41.6453zm7.13149 -5.77535c1.25892,-7.6074 3.72211,-33.8545 13.8431,-29.5017 10.121,4.35274 -6.14946,20.9348 -13.8431,29.5017z"/>
 </g>
</svg>
